<svg width="398" height="41" viewBox="0 0 398 41" fill="none" xmlns="http://www.w3.org/2000/svg">
<path d="M209.939 0.198242H197.416L191.155 40.1982H203.678L209.939 0.198242Z" fill="url(#paint0_linear_114_15692)" fill-opacity="0.16"/>
<path d="M162.15 0.198242H149.627L143.365 40.1982H155.888L162.15 0.198242Z" fill="url(#paint1_linear_114_15692)" fill-opacity="0.16"/>
<path d="M114.36 0.198242H101.837L95.5758 40.1982H108.099L114.36 0.198242Z" fill="url(#paint2_linear_114_15692)" fill-opacity="0.16"/>
<path d="M66.5731 0.198242H54.05L47.7885 40.1982H60.3115L66.5731 0.198242Z" fill="url(#paint3_linear_114_15692)" fill-opacity="0.16"/>
<path d="M18.7846 0.198242H6.26154L9.53674e-06 40.1982H12.5231L18.7846 0.198242Z" fill="url(#paint4_linear_114_15692)" fill-opacity="0.16"/>
<path d="M233.419 0.198242H220.896L214.635 40.1982H227.158L233.419 0.198242Z" fill="url(#paint5_linear_114_15692)" fill-opacity="0.16"/>
<path d="M185.631 0.198242H173.108L166.846 40.1982H179.369L185.631 0.198242Z" fill="url(#paint6_linear_114_15692)" fill-opacity="0.16"/>
<path d="M137.843 0.198242H125.319L119.058 40.1982H131.581L137.843 0.198242Z" fill="url(#paint7_linear_114_15692)" fill-opacity="0.16"/>
<path d="M90.0553 0.198242H77.5322L71.2707 40.1982H83.7938L90.0553 0.198242Z" fill="url(#paint8_linear_114_15692)" fill-opacity="0.16"/>
<path d="M42.2657 0.198242H29.7427L23.4812 40.1982H36.0042L42.2657 0.198242Z" fill="url(#paint9_linear_114_15692)" fill-opacity="0.16"/>
<path d="M256.902 0.198242H244.379L238.117 40.1982H250.64L256.902 0.198242Z" fill="url(#paint10_linear_114_15692)" fill-opacity="0.16"/>
<path d="M280.382 0.198242H267.859L261.597 40.1982H274.12L280.382 0.198242Z" fill="url(#paint11_linear_114_15692)" fill-opacity="0.16"/>
<path d="M303.862 0.198242H291.339L285.077 40.1982H297.6L303.862 0.198242Z" fill="url(#paint12_linear_114_15692)" fill-opacity="0.16"/>
<path d="M327.343 0.198242H314.82L308.558 40.1982H321.081L327.343 0.198242Z" fill="url(#paint13_linear_114_15692)" fill-opacity="0.16"/>
<path d="M350.823 0.198242H338.3L332.038 40.1982H344.561L350.823 0.198242Z" fill="url(#paint14_linear_114_15692)" fill-opacity="0.16"/>
<path d="M374.304 0.198242H361.781L355.519 40.1982H368.042L374.304 0.198242Z" fill="url(#paint15_linear_114_15692)" fill-opacity="0.16"/>
<path d="M397.785 0.198242H385.262L379 40.1982H391.524L397.785 0.198242Z" fill="url(#paint16_linear_114_15692)" fill-opacity="0.16"/>
<defs>
<linearGradient id="paint0_linear_114_15692" x1="204.069" y1="0.198242" x2="202.168" y2="40.386" gradientUnits="userSpaceOnUse">
<stop stop-color="#FF9F1C" stop-opacity="0"/>
<stop offset="1" stop-color="#FF9F1C"/>
</linearGradient>
<linearGradient id="paint1_linear_114_15692" x1="156.28" y1="0.198242" x2="154.378" y2="40.386" gradientUnits="userSpaceOnUse">
<stop stop-color="#FF9F1C" stop-opacity="0"/>
<stop offset="1" stop-color="#FF9F1C"/>
</linearGradient>
<linearGradient id="paint2_linear_114_15692" x1="108.49" y1="0.198242" x2="106.588" y2="40.386" gradientUnits="userSpaceOnUse">
<stop stop-color="#FF9F1C" stop-opacity="0"/>
<stop offset="1" stop-color="#FF9F1C"/>
</linearGradient>
<linearGradient id="paint3_linear_114_15692" x1="60.7029" y1="0.198242" x2="58.8012" y2="40.386" gradientUnits="userSpaceOnUse">
<stop stop-color="#FF9F1C" stop-opacity="0"/>
<stop offset="1" stop-color="#FF9F1C"/>
</linearGradient>
<linearGradient id="paint4_linear_114_15692" x1="12.9144" y1="0.198242" x2="11.0127" y2="40.386" gradientUnits="userSpaceOnUse">
<stop stop-color="#FF9F1C" stop-opacity="0"/>
<stop offset="1" stop-color="#FF9F1C"/>
</linearGradient>
<linearGradient id="paint5_linear_114_15692" x1="227.549" y1="0.198242" x2="225.647" y2="40.386" gradientUnits="userSpaceOnUse">
<stop stop-color="#FF9F1C" stop-opacity="0"/>
<stop offset="1" stop-color="#FF9F1C"/>
</linearGradient>
<linearGradient id="paint6_linear_114_15692" x1="179.761" y1="0.198242" x2="177.859" y2="40.386" gradientUnits="userSpaceOnUse">
<stop stop-color="#FF9F1C" stop-opacity="0"/>
<stop offset="1" stop-color="#FF9F1C"/>
</linearGradient>
<linearGradient id="paint7_linear_114_15692" x1="131.972" y1="0.198242" x2="130.071" y2="40.386" gradientUnits="userSpaceOnUse">
<stop stop-color="#FF9F1C" stop-opacity="0"/>
<stop offset="1" stop-color="#FF9F1C"/>
</linearGradient>
<linearGradient id="paint8_linear_114_15692" x1="84.1851" y1="0.198242" x2="82.2834" y2="40.386" gradientUnits="userSpaceOnUse">
<stop stop-color="#FF9F1C" stop-opacity="0"/>
<stop offset="1" stop-color="#FF9F1C"/>
</linearGradient>
<linearGradient id="paint9_linear_114_15692" x1="36.3956" y1="0.198242" x2="34.4939" y2="40.386" gradientUnits="userSpaceOnUse">
<stop stop-color="#FF9F1C" stop-opacity="0"/>
<stop offset="1" stop-color="#FF9F1C"/>
</linearGradient>
<linearGradient id="paint10_linear_114_15692" x1="251.031" y1="0.198242" x2="249.13" y2="40.386" gradientUnits="userSpaceOnUse">
<stop stop-color="#FF9F1C" stop-opacity="0"/>
<stop offset="1" stop-color="#FF9F1C"/>
</linearGradient>
<linearGradient id="paint11_linear_114_15692" x1="274.512" y1="0.198242" x2="272.61" y2="40.386" gradientUnits="userSpaceOnUse">
<stop stop-color="#FF9F1C" stop-opacity="0"/>
<stop offset="1" stop-color="#FF9F1C"/>
</linearGradient>
<linearGradient id="paint12_linear_114_15692" x1="297.992" y1="0.198242" x2="296.09" y2="40.386" gradientUnits="userSpaceOnUse">
<stop stop-color="#FF9F1C" stop-opacity="0"/>
<stop offset="1" stop-color="#FF9F1C"/>
</linearGradient>
<linearGradient id="paint13_linear_114_15692" x1="321.473" y1="0.198242" x2="319.571" y2="40.386" gradientUnits="userSpaceOnUse">
<stop stop-color="#FF9F1C" stop-opacity="0"/>
<stop offset="1" stop-color="#FF9F1C"/>
</linearGradient>
<linearGradient id="paint14_linear_114_15692" x1="344.953" y1="0.198242" x2="343.051" y2="40.386" gradientUnits="userSpaceOnUse">
<stop stop-color="#FF9F1C" stop-opacity="0"/>
<stop offset="1" stop-color="#FF9F1C"/>
</linearGradient>
<linearGradient id="paint15_linear_114_15692" x1="368.434" y1="0.198242" x2="366.532" y2="40.386" gradientUnits="userSpaceOnUse">
<stop stop-color="#FF9F1C" stop-opacity="0"/>
<stop offset="1" stop-color="#FF9F1C"/>
</linearGradient>
<linearGradient id="paint16_linear_114_15692" x1="391.915" y1="0.198242" x2="390.013" y2="40.386" gradientUnits="userSpaceOnUse">
<stop stop-color="#FF9F1C" stop-opacity="0"/>
<stop offset="1" stop-color="#FF9F1C"/>
</linearGradient>
</defs>
</svg>
