<svg width="140" height="140" viewBox="0 0 140 140" fill="none" xmlns="http://www.w3.org/2000/svg">
<path d="M70.1991 9.84056C103.296 9.84056 130.127 36.6713 130.127 69.7687C130.127 102.866 103.296 129.697 70.1991 129.697C37.1017 129.697 10.271 102.866 10.271 69.7687C10.271 36.6713 37.1017 9.84056 70.1991 9.84056ZM70.1991 128.348C102.551 128.348 128.778 102.121 128.778 69.7687C128.778 37.4163 102.551 11.1896 70.1991 11.1896C37.8468 11.1896 11.62 37.4163 11.62 69.7687C11.62 102.121 37.8468 128.348 70.1991 128.348Z" fill="#00C6EF" fill-opacity="0.2"/>
<path d="M70.1991 10.5032C70.1991 10.1372 70.496 9.84018 70.862 9.84422C83.5161 9.98413 95.8078 14.1269 105.97 21.6873C116.31 29.3797 123.894 40.2004 127.598 52.5439C131.303 64.8874 130.929 78.0961 126.533 90.2105C122.137 102.325 113.953 112.699 103.195 119.795C92.437 126.891 79.6783 130.329 66.8116 129.601C53.9449 128.872 41.6558 124.016 31.7674 115.751C21.8791 107.487 14.9183 96.2545 11.9179 83.7213C8.96889 71.4032 9.99988 58.4732 14.8532 46.786C14.9935 46.448 15.3835 46.292 15.7199 46.436C16.0563 46.5801 16.2118 46.9697 16.0715 47.3078C11.3304 58.733 10.3242 71.3718 13.2068 83.4128C16.1409 95.6687 22.9477 106.652 32.6174 114.734C42.287 122.816 54.3043 127.565 66.8865 128.278C79.4686 128.99 91.9452 125.627 102.465 118.689C112.985 111.75 120.988 101.605 125.287 89.7584C129.586 77.9119 129.951 64.9953 126.329 52.9248C122.707 40.8543 115.29 30.273 105.179 22.7507C95.2453 15.3604 83.2311 11.3095 70.862 11.1696C70.496 11.1655 70.1991 10.8692 70.1991 10.5032Z" fill="#00C6EF" fill-opacity="0.32"/>
<g filter="url(#filter0_d_96_10836)">
<path d="M112.882 95.4428C114.222 96.2513 114.66 97.9983 113.78 99.2927C108.002 107.79 99.8257 114.407 90.2633 118.282C79.8233 122.511 68.2936 123.243 57.4025 120.368C46.5115 117.492 36.846 111.164 29.8549 102.332C22.8638 93.4992 18.9239 82.6389 18.6258 71.3785C18.3277 60.1182 21.6874 49.0646 28.2013 39.8748C34.7153 30.685 44.0324 23.8541 54.756 20.4062C65.4797 16.9583 77.032 17.0791 87.6811 20.7506C97.4352 24.1134 105.95 30.2892 112.169 38.4686C113.117 39.7146 112.772 41.4823 111.477 42.3606C110.181 43.2389 108.426 42.8944 107.47 41.6547C101.944 34.4869 94.4287 29.0727 85.8336 26.1094C76.3432 22.8374 66.0479 22.7297 56.4911 25.8025C46.9343 28.8752 38.631 34.9628 32.8258 43.1527C27.0207 51.3426 24.0265 61.1934 24.2922 71.2285C24.5579 81.2636 28.0691 90.9423 34.2994 98.8135C40.5298 106.685 49.1436 112.324 58.8496 114.887C68.5556 117.45 78.8308 116.798 88.1348 113.028C96.5611 109.614 103.78 103.81 108.918 96.3597C109.807 95.0712 111.542 94.6343 112.882 95.4428Z" fill="#00C6EF"/>
</g>
<g filter="url(#filter1_d_96_10836)">
<path d="M112.704 45.4464C114.061 44.6662 115.801 45.1306 116.507 46.528C119.974 53.3991 121.882 60.9647 122.077 68.6824C122.273 76.4 120.75 84.0524 117.634 91.0901C117 92.5213 115.286 93.0732 113.891 92.3626C112.497 91.652 111.951 89.9483 112.575 88.5129C115.268 82.3189 116.582 75.6005 116.411 68.8257C116.239 62.0509 114.587 55.4076 111.584 49.3577C110.888 47.9557 111.347 46.2266 112.704 45.4464Z" fill="#FF9F1C"/>
</g>
<path fill-rule="evenodd" clip-rule="evenodd" d="M41.7982 41.097C57.761 25.1343 83.6417 25.1343 99.6044 41.097C115.567 57.0597 115.567 82.9404 99.6044 98.9032C83.6417 114.866 57.761 114.866 41.7982 98.9032C25.8355 82.9404 25.8355 57.0597 41.7982 41.097ZM101.772 92.6871C112.788 77.6394 111.498 56.3968 97.9011 42.8003C83.5328 28.432 60.6258 27.8067 45.5143 40.9243L47.2129 46.2035L41.4901 44.9699C28.5124 60.0827 29.1829 82.8813 43.5015 97.1999C58.5235 112.222 82.8791 112.222 97.9011 97.1999C97.9277 97.1733 97.9543 97.1466 97.9808 97.12L96.0414 91.6156L101.772 92.6871Z" fill="#00C6EF" fill-opacity="0.1"/>
<defs>
<filter id="filter0_d_96_10836" x="11.6075" y="10.9057" width="109.63" height="118.188" filterUnits="userSpaceOnUse" color-interpolation-filters="sRGB">
<feFlood flood-opacity="0" result="BackgroundImageFix"/>
<feColorMatrix in="SourceAlpha" type="matrix" values="0 0 0 0 0 0 0 0 0 0 0 0 0 0 0 0 0 0 127 0" result="hardAlpha"/>
<feOffset/>
<feGaussianBlur stdDeviation="3.5"/>
<feColorMatrix type="matrix" values="0 0 0 0 0.825 0 0 0 0 1 0 0 0 0 0.937198 0 0 0 0.6 0"/>
<feBlend mode="normal" in2="BackgroundImageFix" result="effect1_dropShadow_96_10836"/>
<feBlend mode="normal" in="SourceGraphic" in2="effect1_dropShadow_96_10836" result="shape"/>
</filter>
<filter id="filter1_d_96_10836" x="104.262" y="38.0694" width="24.8318" height="61.6023" filterUnits="userSpaceOnUse" color-interpolation-filters="sRGB">
<feFlood flood-opacity="0" result="BackgroundImageFix"/>
<feColorMatrix in="SourceAlpha" type="matrix" values="0 0 0 0 0 0 0 0 0 0 0 0 0 0 0 0 0 0 127 0" result="hardAlpha"/>
<feOffset/>
<feGaussianBlur stdDeviation="3.5"/>
<feColorMatrix type="matrix" values="0 0 0 0 0.960784 0 0 0 0 0.905882 0 0 0 0 0.309804 0 0 0 0.6 0"/>
<feBlend mode="normal" in2="BackgroundImageFix" result="effect1_dropShadow_96_10836"/>
<feBlend mode="normal" in="SourceGraphic" in2="effect1_dropShadow_96_10836" result="shape"/>
</filter>
</defs>
</svg>
