<svg width="172" height="115" viewBox="0 0 172 115" fill="none" xmlns="http://www.w3.org/2000/svg">
<path d="M13.34 40.16C12.9 40.16 12.42 40.14 11.9 40.1C11.3933 40.0733 10.8933 40.0333 10.4 39.98C9.92 39.9133 9.5 39.8467 9.14 39.78V38C9.59333 38.04 10.0667 38.08 10.56 38.12C11.0667 38.16 11.54 38.1933 11.98 38.22C12.4333 38.2333 12.82 38.24 13.14 38.24C13.8867 38.24 14.5 38.2 14.98 38.12C15.46 38.04 15.82 37.8533 16.06 37.56C16.3 37.2667 16.42 36.8 16.42 36.16C16.42 35.6 16.34 35.1667 16.18 34.86C16.0333 34.54 15.78 34.32 15.42 34.2C15.0733 34.0667 14.6 34 14 34H11.52V32.08H14C14.4533 32.08 14.8467 32.0267 15.18 31.92C15.5267 31.8133 15.7933 31.62 15.98 31.34C16.1667 31.0467 16.26 30.62 16.26 30.06C16.26 29.42 16.1533 28.96 15.94 28.68C15.74 28.3867 15.4 28.2 14.92 28.12C14.44 28.04 13.78 28 12.94 28C12.5667 28 12.1533 28.0133 11.7 28.04C11.26 28.0667 10.82 28.1 10.38 28.14C9.94 28.1667 9.55333 28.2067 9.22 28.26V26.46C9.58 26.38 10 26.3133 10.48 26.26C10.96 26.2067 11.4533 26.1667 11.96 26.14C12.4667 26.1 12.9333 26.08 13.36 26.08C14.36 26.08 15.1933 26.16 15.86 26.32C16.5267 26.4667 17.0533 26.6933 17.44 27C17.84 27.3067 18.1267 27.6867 18.3 28.14C18.4733 28.58 18.56 29.1 18.56 29.7C18.56 30.7 18.36 31.4467 17.96 31.94C17.56 32.4333 16.9733 32.7667 16.2 32.94V33.02C16.72 33.1267 17.1667 33.2933 17.54 33.52C17.9133 33.7467 18.2 34.0867 18.4 34.54C18.6 34.98 18.7 35.5733 18.7 36.32C18.7 36.8933 18.6267 37.4133 18.48 37.88C18.3467 38.3467 18.0867 38.7533 17.7 39.1C17.3267 39.4333 16.7867 39.6933 16.08 39.88C15.3733 40.0667 14.46 40.16 13.34 40.16ZM21.3503 40V38.3C21.3503 37.5267 21.3703 36.88 21.4103 36.36C21.4636 35.8267 21.5636 35.38 21.7103 35.02C21.857 34.66 22.0903 34.3533 22.4103 34.1C22.7303 33.8467 23.1703 33.6067 23.7303 33.38L27.0903 31.98C27.557 31.7933 27.9036 31.62 28.1303 31.46C28.357 31.2867 28.5103 31.08 28.5903 30.84C28.6703 30.6 28.7103 30.2867 28.7103 29.9C28.7103 29.3267 28.617 28.9067 28.4303 28.64C28.257 28.3733 27.937 28.2 27.4703 28.12C27.017 28.04 26.377 28 25.5503 28C25.2436 28 24.8636 28.0133 24.4103 28.04C23.9703 28.0667 23.5036 28.1 23.0103 28.14C22.5303 28.18 22.0703 28.22 21.6303 28.26V26.48C22.0303 26.4 22.497 26.3333 23.0303 26.28C23.5636 26.2267 24.1103 26.18 24.6703 26.14C25.2436 26.1 25.777 26.08 26.2703 26.08C26.9236 26.08 27.5303 26.12 28.0903 26.2C28.6503 26.2667 29.1436 26.42 29.5703 26.66C30.0103 26.9 30.3503 27.2667 30.5903 27.76C30.8436 28.24 30.9703 28.8933 30.9703 29.72C30.9703 30.5333 30.877 31.1867 30.6903 31.68C30.517 32.16 30.2503 32.5533 29.8903 32.86C29.5303 33.1533 29.0636 33.4133 28.4903 33.64L24.6503 35.22C24.317 35.3533 24.0703 35.5 23.9103 35.66C23.7503 35.82 23.6503 36.0333 23.6103 36.3C23.5703 36.5667 23.5503 36.9133 23.5503 37.34V38.06H30.9703V40H21.3503ZM41.0411 32.06C40.3878 32.06 39.8744 32.0133 39.5011 31.92C39.1278 31.8133 38.8544 31.64 38.6811 31.4C38.5078 31.16 38.4011 30.8533 38.3611 30.48C38.3211 30.0933 38.3011 29.6267 38.3011 29.08C38.3011 28.5333 38.3211 28.0733 38.3611 27.7C38.4011 27.3133 38.5078 27 38.6811 26.76C38.8544 26.52 39.1278 26.3467 39.5011 26.24C39.8744 26.1333 40.3878 26.08 41.0411 26.08C41.6944 26.08 42.2078 26.1333 42.5811 26.24C42.9544 26.3467 43.2211 26.52 43.3811 26.76C43.5544 27 43.6611 27.3133 43.7011 27.7C43.7544 28.0733 43.7811 28.5333 43.7811 29.08C43.7811 29.6267 43.7544 30.0933 43.7011 30.48C43.6611 30.8533 43.5544 31.16 43.3811 31.4C43.2211 31.64 42.9544 31.8133 42.5811 31.92C42.2078 32.0133 41.6944 32.06 41.0411 32.06ZM41.0411 30.98C41.4811 30.98 41.7944 30.9333 41.9811 30.84C42.1678 30.7467 42.2811 30.5667 42.3211 30.3C42.3611 30.02 42.3811 29.6133 42.3811 29.08C42.3811 28.5467 42.3611 28.1467 42.3211 27.88C42.2811 27.6 42.1678 27.4133 41.9811 27.32C41.7944 27.2267 41.4811 27.18 41.0411 27.18C40.5878 27.18 40.2678 27.2267 40.0811 27.32C39.8944 27.4133 39.7811 27.6 39.7411 27.88C39.7011 28.1467 39.6811 28.5467 39.6811 29.08C39.6811 29.6133 39.7011 30.02 39.7411 30.3C39.7811 30.5667 39.8944 30.7467 40.0811 30.84C40.2678 30.9333 40.5878 30.98 41.0411 30.98ZM56.7973 40.16C55.8107 40.16 54.984 40.1 54.3173 39.98C53.6507 39.8467 53.104 39.6267 52.6773 39.32C52.264 39.0133 51.944 38.6 51.7173 38.08C51.504 37.5467 51.3573 36.8733 51.2773 36.06C51.1973 35.2467 51.1573 34.2667 51.1573 33.12C51.1573 31.9733 51.1973 30.9933 51.2773 30.18C51.3573 29.3667 51.504 28.7 51.7173 28.18C51.944 27.6467 52.264 27.2267 52.6773 26.92C53.104 26.6133 53.6507 26.4 54.3173 26.28C54.984 26.1467 55.8107 26.08 56.7973 26.08C57.184 26.08 57.5773 26.0933 57.9773 26.12C58.3907 26.1467 58.784 26.1867 59.1573 26.24C59.5307 26.28 59.8507 26.3333 60.1173 26.4V28.2C59.784 28.16 59.4507 28.1267 59.1173 28.1C58.7973 28.06 58.484 28.0333 58.1773 28.02C57.8707 28.0067 57.604 28 57.3773 28C56.644 28 56.0373 28.0267 55.5573 28.08C55.0773 28.1333 54.6907 28.2533 54.3973 28.44C54.1173 28.6267 53.904 28.9067 53.7573 29.28C53.624 29.64 53.5307 30.1333 53.4773 30.76C53.4373 31.3867 53.4173 32.1733 53.4173 33.12C53.4173 34.0533 53.4373 34.84 53.4773 35.48C53.5307 36.1067 53.624 36.6067 53.7573 36.98C53.904 37.34 54.1173 37.6133 54.3973 37.8C54.6907 37.9867 55.0773 38.1067 55.5573 38.16C56.0373 38.2133 56.644 38.24 57.3773 38.24C57.8173 38.24 58.2973 38.22 58.8173 38.18C59.3507 38.14 59.8107 38.0933 60.1973 38.04V39.88C59.904 39.9333 59.5573 39.98 59.1573 40.02C58.7707 40.06 58.3707 40.0933 57.9573 40.12C57.5573 40.1467 57.1707 40.16 56.7973 40.16Z" fill="#00C6EF"/>
<g filter="url(#filter0_b_140_16496)">
<path d="M93.6909 28.1295C93.742 27.8357 93.7686 27.5335 93.7686 27.225C93.7686 24.3393 91.4375 22 88.562 22C86.4243 22 84.5875 23.2929 83.7856 25.142C83.136 24.5791 82.2931 24.2393 81.3719 24.2393C79.3179 24.2393 77.6529 25.9288 77.6529 28.0129C77.6529 28.129 77.6581 28.2438 77.6682 28.3572C76.6802 28.8428 76 29.8618 76 31.0402C76 32.6891 77.332 34.0259 78.9752 34.0259H93.0248C94.668 34.0259 96 32.6891 96 31.0402C96 29.621 95.0133 28.4331 93.6909 28.1295Z" fill="#177899"/>
</g>
<g filter="url(#filter1_i_140_16496)">
<path d="M81.3822 30.7744C80.2046 32.3443 78.5559 35.4841 81.3822 35.4841C84.2084 35.4841 82.5598 32.3443 81.3822 30.7744Z" fill="#1FC6FF"/>
</g>
<g filter="url(#filter2_i_140_16496)">
<path d="M90.5545 30.7744C89.3769 32.3443 87.7283 35.4841 90.5545 35.4841C93.3808 35.4841 91.7321 32.3443 90.5545 30.7744Z" fill="#1FC6FF"/>
</g>
<g filter="url(#filter3_i_140_16496)">
<path d="M86.1591 37.2903C84.9815 38.8602 83.3329 42 86.1591 42C88.9854 42 87.3367 38.8602 86.1591 37.2903Z" fill="#1FC6FF"/>
</g>
<g filter="url(#filter4_f_140_16496)">
<rect x="78.3568" y="34.3869" width="15.2866" height="2.25805" rx="1.12902" fill="#00BCFF" fill-opacity="0.56"/>
</g>
<defs>
<filter id="filter0_b_140_16496" x="49" y="-5" width="74" height="66.0259" filterUnits="userSpaceOnUse" color-interpolation-filters="sRGB">
<feFlood flood-opacity="0" result="BackgroundImageFix"/>
<feGaussianBlur in="BackgroundImageFix" stdDeviation="13.5"/>
<feComposite in2="SourceAlpha" operator="in" result="effect1_backgroundBlur_140_16496"/>
<feBlend mode="normal" in="SourceGraphic" in2="effect1_backgroundBlur_140_16496" result="shape"/>
</filter>
<filter id="filter1_i_140_16496" x="79.8217" y="30.7744" width="3.12097" height="4.70966" filterUnits="userSpaceOnUse" color-interpolation-filters="sRGB">
<feFlood flood-opacity="0" result="BackgroundImageFix"/>
<feBlend mode="normal" in="SourceGraphic" in2="BackgroundImageFix" result="shape"/>
<feColorMatrix in="SourceAlpha" type="matrix" values="0 0 0 0 0 0 0 0 0 0 0 0 0 0 0 0 0 0 127 0" result="hardAlpha"/>
<feOffset dy="9"/>
<feGaussianBlur stdDeviation="1.5"/>
<feComposite in2="hardAlpha" operator="arithmetic" k2="-1" k3="1"/>
<feColorMatrix type="matrix" values="0 0 0 0 1 0 0 0 0 1 0 0 0 0 1 0 0 0 0.21 0"/>
<feBlend mode="normal" in2="shape" result="effect1_innerShadow_140_16496"/>
</filter>
<filter id="filter2_i_140_16496" x="88.994" y="30.7744" width="3.12097" height="4.70966" filterUnits="userSpaceOnUse" color-interpolation-filters="sRGB">
<feFlood flood-opacity="0" result="BackgroundImageFix"/>
<feBlend mode="normal" in="SourceGraphic" in2="BackgroundImageFix" result="shape"/>
<feColorMatrix in="SourceAlpha" type="matrix" values="0 0 0 0 0 0 0 0 0 0 0 0 0 0 0 0 0 0 127 0" result="hardAlpha"/>
<feOffset dy="9"/>
<feGaussianBlur stdDeviation="1.5"/>
<feComposite in2="hardAlpha" operator="arithmetic" k2="-1" k3="1"/>
<feColorMatrix type="matrix" values="0 0 0 0 1 0 0 0 0 1 0 0 0 0 1 0 0 0 0.21 0"/>
<feBlend mode="normal" in2="shape" result="effect1_innerShadow_140_16496"/>
</filter>
<filter id="filter3_i_140_16496" x="84.5986" y="37.2903" width="3.12097" height="4.70966" filterUnits="userSpaceOnUse" color-interpolation-filters="sRGB">
<feFlood flood-opacity="0" result="BackgroundImageFix"/>
<feBlend mode="normal" in="SourceGraphic" in2="BackgroundImageFix" result="shape"/>
<feColorMatrix in="SourceAlpha" type="matrix" values="0 0 0 0 0 0 0 0 0 0 0 0 0 0 0 0 0 0 127 0" result="hardAlpha"/>
<feOffset dy="9"/>
<feGaussianBlur stdDeviation="1.5"/>
<feComposite in2="hardAlpha" operator="arithmetic" k2="-1" k3="1"/>
<feColorMatrix type="matrix" values="0 0 0 0 1 0 0 0 0 1 0 0 0 0 1 0 0 0 0.21 0"/>
<feBlend mode="normal" in2="shape" result="effect1_innerShadow_140_16496"/>
</filter>
<filter id="filter4_f_140_16496" x="0.356812" y="-43.6131" width="171.287" height="158.258" filterUnits="userSpaceOnUse" color-interpolation-filters="sRGB">
<feFlood flood-opacity="0" result="BackgroundImageFix"/>
<feBlend mode="normal" in="SourceGraphic" in2="BackgroundImageFix" result="shape"/>
<feGaussianBlur stdDeviation="39" result="effect1_foregroundBlur_140_16496"/>
</filter>
</defs>
</svg>
