<svg width="376" height="1" viewBox="0 0 376 1" fill="none" xmlns="http://www.w3.org/2000/svg">
<rect x="32" y="1" width="0.557576" height="24" transform="rotate(-90 32 1)" fill="#00C6EF" fill-opacity="0.24"/>
<rect x="6" y="1" width="0.557576" height="24" transform="rotate(-90 6 1)" fill="#00C6EF" fill-opacity="0.24"/>
<rect y="1" width="0.557576" height="4" transform="rotate(-90 0 1)" fill="#00C6EF" fill-opacity="0.72"/>
<rect x="58" y="1" width="0.557576" height="4" transform="rotate(-90 58 1)" fill="#00C6EF" fill-opacity="0.72"/>
<rect x="64" y="1" width="0.557576" height="4" transform="rotate(-90 64 1)" fill="#00C6EF" fill-opacity="0.72"/>
<rect x="70" y="1" width="0.557576" height="4" transform="rotate(-90 70 1)" fill="#00C6EF" fill-opacity="0.72"/>
<rect width="0.557576" height="24" transform="matrix(0 -1 -1 0 344 1)" fill="#00C6EF" fill-opacity="0.24"/>
<rect x="76" y="1" width="0.557576" height="224" transform="rotate(-90 76 1)" fill="#00C6EF" fill-opacity="0.24"/>
<rect width="0.557576" height="24" transform="matrix(0 -1 -1 0 370 1)" fill="#00C6EF" fill-opacity="0.24"/>
<rect width="0.557576" height="4" transform="matrix(0 -1 -1 0 376 1)" fill="#00C6EF" fill-opacity="0.72"/>
<rect width="0.557576" height="4" transform="matrix(0 -1 -1 0 318 1)" fill="#00C6EF" fill-opacity="0.72"/>
<rect width="0.557576" height="4" transform="matrix(0 -1 -1 0 312 1)" fill="#00C6EF" fill-opacity="0.72"/>
<rect width="0.557576" height="4" transform="matrix(0 -1 -1 0 306 1)" fill="#00C6EF" fill-opacity="0.72"/>
</svg>
